HIERARCHY
ROOT Root
{
  OFFSET 6.90105 11.8871 -0.957331
  CHANNELS 6 Xposition Yposition Zposition Zrotation Xrotation Yrotation
  JOINT Spine
  {
    OFFSET 5.3114 0 0
    CHANNELS 3 Zrotation Xrotation Yrotation
    JOINT Spine1
    {
      OFFSET 2.79004 0 0
      CHANNELS 3 Zrotation Xrotation Yrotation
      JOINT Neck
      {
        OFFSET 1.43377 0 0
        CHANNELS 3 Zrotation Xrotation Yrotation
        JOINT Head
        {
          OFFSET 1.86043 0 0
          CHANNELS 3 Zrotation Xrotation Yrotation
          End Site
          {
            OFFSET 0 0 0
          }
        }
      }
      JOINT LeftArm
      {
        OFFSET 0.0387506 0 2.55754
        CHANNELS 3 Zrotation Xrotation Yrotation
        JOINT LeftForeArm
        {
          OFFSET 4.24845 0 0
          CHANNELS 3 Zrotation Xrotation Yrotation
          JOINT LeftHand
          {
            OFFSET 4.01008 0 0
            CHANNELS 3 Zrotation Xrotation Yrotation
            End Site
            {
              OFFSET 0 0 0
            }
          }
        }
      }
      JOINT RightArm
      {
        OFFSET 0.0387506 0 -2.55754
        CHANNELS 3 Zrotation Xrotation Yrotation
        JOINT RightForeArm
        {
          OFFSET -4.24845 0 0
          CHANNELS 3 Zrotation Xrotation Yrotation
          JOINT RightHand
          {
            OFFSET -4.01009 0 0
            CHANNELS 3 Zrotation Xrotation Yrotation
            End Site
            {
              OFFSET 0 0 0
            }
          }
        }
      }
    }
  }
  JOINT LeftUpLeg
  {
    OFFSET -1.23318 0 2.05692
    CHANNELS 3 Zrotation Xrotation Yrotation
    JOINT LeftLeg
    {
      OFFSET 5.46397 0 0
      CHANNELS 3 Zrotation Xrotation Yrotation
      JOINT LeftFoot
      {
        OFFSET 4.68898 0 0
        CHANNELS 3 Zrotation Xrotation Yrotation
        End Site
        {
          OFFSET 0 0 0
        }
      }
    }
  }
  JOINT RightUpLeg
  {
    OFFSET -1.24454 0 -2.05007
    CHANNELS 3 Zrotation Xrotation Yrotation
    JOINT RightLeg
    {
      OFFSET -5.46397 0 0
      CHANNELS 3 Zrotation Xrotation Yrotation
      JOINT RightFoot
      {
        OFFSET -4.68901 0 0
        CHANNELS 3 Zrotation Xrotation Yrotation
        End Site
        {
          OFFSET 0 0 0
        }
      }
    }
  }
}
MOTION
Frames:	15
Frame Time:	0.00833333
-7.40949 11.928 -9.74769 111.905 42.9758 -14.7904 -8.48539 4.20283 6.28702 6.07641 1.33381 0.664992 -18.5425 2.26097 0.81903 31.7351 3.18884 -8.05425 6.68462 -31.4738 -172.288 31.2759 2.24804 18.0172 -1.79613 -19.7047 174.141 175.364 -3.19512 -151.627 24.365 0.893984 14.1366 1.74841 19.2259 174.159 -44.9402 -0.408625 177.791 -46.5131 -1.14237 -1.58403 21.9859 -6.21214 179.695 150.414 -4.64369 179.789 -37.7593 -1.1372 -1.44687 16.1072 0.935951 177.023 
-7.46808 11.9375 -9.7111 112.104 43.4124 -15.0897 -8.58724 4.32468 6.26814 6.13638 1.37642 0.793036 -18.5735 2.26557 0.677594 31.6415 3.19229 -7.9438 6.55867 -31.711 -172.592 31.5165 2.30388 18.1501 -1.7832 -19.575 174.146 175.333 -3.70387 -151.2 24.913 0.983045 14.4484 1.64486 18.1644 174.192 -45.3741 -0.198943 177.748 -44.8731 -1.10948 -1.54456 21.12 -5.55582 179.426 151.138 -4.31294 179.721 -37.237 -1.13952 -1.43359 16.4241 0.751372 177.092 
-7.52586 11.9464 -9.6743 112.291 43.8328 -15.393 -8.67161 4.42885 6.26429 6.18924 1.41241 0.888664 -18.5853 2.26695 0.615 31.5492 3.19176 -7.91388 6.4185 -31.927 -172.861 31.6888 2.34382 18.2454 -1.77205 -19.4628 174.15 175.29 -4.21524 -150.823 25.47 1.07729 14.7643 1.54447 17.1229 174.222 -45.7793 -0.0284045 177.712 -43.2685 -1.0784 -1.50676 20.3105 -4.98827 179.202 151.878 -3.99268 179.629 -36.6739 -1.14129 -1.4192 16.7149 0.567159 177.161 
-7.58263 11.955 -9.63728 112.466 44.2391 -15.6992 -8.73307 4.51165 6.2759 6.23309 1.44001 0.938502 -18.5649 2.26031 0.664914 31.4501 3.17767 -8.00316 6.26177 -32.114 -173.081 31.7854 2.36611 18.299 -1.76339 -19.3757 174.153 175.239 -4.74175 -150.506 26.0391 1.17738 15.0864 1.44444 16.0732 174.251 -46.1495 0.0947141 177.68 -41.6692 -1.04927 -1.46988 19.5182 -4.47013 179.014 152.642 -3.68464 179.516 -36.0634 -1.14253 -1.40348 16.9861 0.379172 177.23 
-7.63873 11.9636 -9.59982 112.633 44.6274 -16.0056 -8.78427 4.57912 6.29243 6.27324 1.46214 0.966668 -18.526 2.25066 0.782098 31.345 3.15946 -8.16324 6.0935 -32.2846 -173.274 31.8243 2.37521 18.3205 -1.75664 -19.308 174.155 175.19 -5.28898 -150.226 26.6257 1.28356 15.418 1.34274 14.9945 174.278 -46.4878 0.19225 177.658 -40.0625 -1.02064 -1.43369 18.7277 -3.95164 178.84 153.428 -3.37792 179.389 -35.4012 -1.14298 -1.38637 17.2281 0.194492 177.298 
-7.69433 11.9715 -9.5621 112.787 44.9956 -16.3159 -8.82818 4.635 6.32079 6.31027 1.48061 0.985151 -18.4881 2.24507 0.924733 31.2512 3.15163 -8.34343 5.91816 -32.4474 -173.456 31.8094 2.3719 18.3122 -1.75063 -19.2468 174.157 175.12 -5.8273 -149.982 27.2182 1.39398 15.7522 1.24669 13.9654 174.302 -46.8064 0.266464 177.651 -38.5258 -0.993331 -1.40004 18.0309 -3.55882 178.713 154.225 -3.07677 179.239 -34.705 -1.14278 -1.36838 17.4335 0.0171276 177.364 
-7.74961 11.9781 -9.52433 112.925 45.3417 -16.6338 -8.86778 4.68302 6.36789 6.34476 1.49723 1.00595 -18.4708 2.25059 1.051 31.1858 3.16867 -8.493 5.73966 -32.6114 -173.641 31.7447 2.35698 18.2763 -1.74419 -19.1793 174.159 175.005 -6.32748 -149.771 27.8047 1.50683 16.0822 1.16331 13.0647 174.321 -47.1174 0.319619 177.661 -37.1363 -0.968161 -1.3708 17.5179 -3.41769 178.668 155.024 -2.78543 179.055 -33.9926 -1.14205 -1.35004 17.5947 -0.148913 177.426 
-7.80443 11.9832 -9.48661 113.051 45.6662 -16.9746 -8.90663 4.71879 6.44691 6.37897 1.51123 1.0325 -18.4885 2.27052 1.15431 31.1605 3.21734 -8.60375 5.54612 -32.7865 -173.838 31.6132 2.32638 18.2036 -1.73831 -19.1138 174.161 174.82 -6.76491 -149.595 28.3883 1.62301 16.4095 1.09881 12.3631 174.336 -47.4285 0.315978 177.691 -35.9072 -0.945226 -1.34747 17.2256 -3.58939 178.723 155.823 -2.50826 178.821 -33.2541 -1.14064 -1.33119 17.7006 -0.31129 177.488 
-7.85875 11.9872 -9.44882 113.166 45.9695 -17.3313 -8.94224 4.7421 6.55038 6.4119 1.52208 1.05833 -18.5277 2.30063 1.25545 31.1639 3.28893 -8.70097 5.33977 -32.9654 -174.036 31.4189 2.28104 18.0963 -1.73319 -19.0532 174.163 174.581 -7.16226 -149.455 28.973 1.74297 16.7367 1.04751 11.8021 174.346 -47.7318 0.266446 177.738 -34.7996 -0.924132 -1.32874 17.1018 -3.99754 178.856 156.626 -2.2419 178.548 -32.4849 -1.13855 -1.31164 17.7583 -0.46923 177.547 
-7.91291 11.9901 -9.4108 113.258 46.2502 -17.6732 -8.96853 4.76299 6.65426 6.43921 1.53188 1.08055 -18.5665 2.33668 1.35366 31.1791 3.37469 -8.78424 5.14549 -33.1311 -174.226 31.1961 2.22931 17.9732 -1.72645 -18.9769 174.165 174.33 -7.56034 -149.349 29.5491 1.86427 17.0584 0.998685 11.2664 174.356 -48.0158 0.243251 177.801 -33.8132 -0.904956 -1.3122 17.1031 -4.56186 179.043 157.438 -1.97907 178.263 -31.7107 -1.1361 -1.29189 17.787 -0.606059 177.6 
-7.96723 11.9919 -9.37238 113.315 46.5075 -17.9693 -8.97944 4.79153 6.73449 6.4566 1.54277 1.09624 -18.5826 2.37444 1.44819 31.1892 3.46588 -8.85314 4.98895 -33.2665 -174.396 30.9796 2.17958 17.8535 -1.71572 -18.8643 174.169 174.111 -8.00003 -149.273 30.1071 1.98454 17.3693 0.941831 10.6405 174.367 -48.2693 0.318629 177.879 -32.9473 -0.887772 -1.29547 17.1858 -5.20202 179.261 158.258 -1.71247 177.993 -30.9572 -1.1336 -1.27243 17.8059 -0.705104 177.638 
-8.02182 11.9926 -9.33368 113.321 46.7352 -18.2011 -8.96645 4.83089 6.78571 6.45905 1.55538 1.10525 -18.5592 2.41673 1.54504 31.1824 3.56715 -8.91853 4.86033 -33.3382 -174.562 30.7523 2.12831 17.7274 -1.69783 -18.6853 174.175 173.931 -8.5001 -149.224 30.6456 2.10379 17.6685 0.869655 9.84281 174.38 -48.4878 0.512558 177.969 -32.2377 -0.873314 -1.27892 17.3839 -5.98029 179.529 159.094 -1.43181 177.746 -30.2258 -1.13084 -1.25313 17.8105 -0.752253 177.659 
-8.07651 11.9923 -9.29474 113.286 46.9366 -18.3869 -8.93507 4.87555 6.82039 6.45016 1.56856 1.10894 -18.5116 2.46448 1.64254 31.1703 3.68084 -8.97698 4.7525 -33.3652 -174.721 30.5045 2.07293 17.5898 -1.67493 -18.4589 174.182 173.77 -9.03706 -149.204 31.1694 2.2231 17.9586 0.789438 8.95184 174.394 -48.6786 0.786298 178.074 -31.6727 -0.861303 -1.26348 17.7121 -6.91151 179.854 159.942 -1.14378 177.508 -29.5045 -1.12775 -1.23383 17.7937 -0.759613 177.665 
-8.13116 11.9908 -9.25524 113.231 47.1246 -18.5502 -8.9003 4.92255 6.84125 6.4385 1.58175 1.10662 -18.4666 2.51066 1.72843 31.1704 3.79476 -9.00665 4.69434 -33.4083 -174.842 30.2817 2.02332 17.4661 -1.65264 -18.239 174.189 173.618 -9.58778 -149.216 31.6783 2.34168 18.2396 0.712448 8.09236 174.407 -48.8485 1.12403 178.195 -31.1808 -0.8503 -1.24765 18.0917 -7.84424 -179.816 160.791 -0.86657 177.272 -28.7994 -1.12486 -1.21493 17.7704 -0.749837 177.665 
-8.18563 11.9883 -9.21488 113.18 47.3117 -18.7154 -8.87717 4.96889 6.85102 6.43267 1.59442 1.09763 -18.4508 2.5482 1.79041 31.2004 3.89677 -8.98568 4.71441 -33.5284 -174.891 30.1298 1.98944 17.3818 -1.63654 -18.0791 174.195 173.469 -10.1295 -149.266 32.1718 2.45872 18.5117 0.649735 7.38915 174.415 -49.0046 1.50992 178.337 -30.6903 -0.838863 -1.2299 18.4372 -8.62715 -179.528 161.627 -0.618355 177.03 -28.1164 -1.12269 -1.19683 17.7557 -0.745582 177.666 
